<?xml version="1.0" encoding="UTF-8"?><svg id="Layer_2" xmlns="http://www.w3.org/2000/svg" viewBox="0 0 298.68 55.51"><g id="Layer_1-2"><g><g><path d="M54.83,24.49c-.34-.55-.69-1.07-1.04-1.58-.22-.33-.46-.64-.68-.95l.04,.04c.6-1.35,3.55-21.37-2.96-21.98-2.79-.55-14.9,8.47-15.2,10.51h0c-4.56-.64-5.19-.64-9.75,0C24.98,8.54,12.73-.57,10.03,.03c-6.49,.54-3.58,20.7-2.97,21.98l.05-.05c-35.93,42.83,77.57,45.72,47.72,2.54ZM48.87,3.88c4.42,.44,3.57,9.43,1.09,14.44-2.67-2.63-5.5-4.45-8.18-5.67,0-4.54,4.94-8.26,7.1-8.77ZM8.54,7.1c.99-7.07,9.75-.4,9.9,5.54-2.66,1.22-5.56,3.06-8.18,5.68-2.44-4.45-1.99-9.46-1.72-11.22Zm44.59,27.83c.21,13.44-15.73,14.16-23.03,13.96-7.29,.2-23.25-.52-23.03-13.96-.33-6.57,9.91-15.62,13.35-13.46,2.44,1.53,7.37,16.14,9.08,21.37,.19,.58,1,.58,1.19,0,1.71-5.23,6.64-19.84,9.09-21.37,3.43-2.16,13.69,6.89,13.35,13.46Z"/><path d="M17.82,27.43c-2.81,0-4.81,4.73-4.43,8.68,.38,3.94,2.89,5.91,5.7,5.91s4.8-1.76,4.8-5.42-3.28-9.16-6.08-9.16Z"/><path d="M42.39,27.43c-2.81,0-6.08,5.5-6.08,9.16s2,5.42,4.81,5.42,5.32-1.97,5.7-5.91c.38-3.94-1.62-8.68-4.43-8.68Z"/></g><g><path d="M109.75,13.56c-2.55-1.15-5.54-1.72-8.98-1.72-1.27,0-2.67,.07-4.2,.2-1.53,.13-2.97,.42-4.3,.85-.6,.23-1.08,.52-1.45,.88-.37,.35-.55,.86-.55,1.52v23.95c0,1.57,.87,2.67,2.6,3.3,1.3,.47,2.75,.78,4.35,.93,1.6,.15,2.95,.22,4.05,.22,3.33,0,6.24-.59,8.73-1.78,2.48-1.18,4.42-2.96,5.8-5.32,1.38-2.37,2.07-5.35,2.07-8.95s-.72-6.52-2.15-8.85c-1.43-2.33-3.42-4.07-5.98-5.22Zm-2.05,21.53c-1.58,1.63-3.71,2.45-6.38,2.45-.57,0-1.18-.02-1.83-.07-.65-.05-1.21-.12-1.67-.23V18.23c.53-.1,1.08-.17,1.65-.2,.57-.03,1.15-.05,1.75-.05,1.73,0,3.27,.36,4.6,1.08,1.33,.72,2.38,1.79,3.12,3.22,.75,1.43,1.12,3.27,1.12,5.5,0,3.23-.79,5.67-2.38,7.3Z"/><path d="M148.23,13.56c-2.33-1.22-4.97-1.83-7.9-1.83s-5.52,.61-7.85,1.83c-2.33,1.22-4.18,3.02-5.55,5.4-1.37,2.38-2.05,5.31-2.05,8.77s.67,6.39,2,8.78c1.33,2.38,3.17,4.19,5.5,5.42,2.33,1.23,4.98,1.85,7.95,1.85s5.62-.62,7.95-1.85c2.33-1.23,4.18-3.04,5.55-5.42,1.37-2.38,2.05-5.31,2.05-8.78s-.69-6.39-2.08-8.77c-1.38-2.38-3.24-4.18-5.57-5.4Zm-2.25,21.58c-1.4,1.67-3.27,2.5-5.6,2.5s-4.2-.83-5.6-2.5-2.1-4.13-2.1-7.4,.7-5.68,2.1-7.35,3.25-2.5,5.55-2.5,4.25,.84,5.65,2.52c1.4,1.68,2.1,4.12,2.1,7.33s-.7,5.73-2.1,7.4Z"/><path d="M178.9,27.82l7.38-7.34c.83-.83,1.44-1.58,1.83-2.25,.38-.67,.57-1.38,.57-2.15,0-1-.42-1.88-1.27-2.62s-2.23-1.12-4.12-1.12l-11.25,12.58V15.73c0-1.4-.32-2.35-.98-2.85-.65-.5-1.69-.75-3.12-.75-.63,0-1.29,.05-1.97,.15-.68,.1-1.19,.18-1.53,.25v27.2c0,1.3,.31,2.23,.93,2.78,.62,.55,1.67,.83,3.17,.83,.7,0,1.38-.05,2.02-.15,.65-.1,1.14-.2,1.48-.3v-12.16l8.6,9.71c.73,.8,1.48,1.5,2.23,2.1,.75,.6,1.73,.9,2.92,.9,1.1,0,2.06-.36,2.88-1.08,.82-.72,1.23-1.71,1.23-2.97-1.37-1.4-3.15-3.27-5.35-5.6-1.7-1.8-3.57-3.79-5.63-5.96Z"/><path d="M212.05,27.82l7.38-7.34c.83-.83,1.44-1.58,1.83-2.25,.38-.67,.57-1.38,.57-2.15,0-1-.42-1.88-1.27-2.62s-2.23-1.12-4.12-1.12l-11.25,12.58V15.73c0-1.4-.32-2.35-.98-2.85-.65-.5-1.69-.75-3.12-.75-.63,0-1.29,.05-1.97,.15-.68,.1-1.19,.18-1.53,.25v27.2c0,1.3,.31,2.23,.93,2.78,.62,.55,1.67,.83,3.17,.83,.7,0,1.38-.05,2.02-.15,.65-.1,1.14-.2,1.48-.3v-12.16l8.6,9.71c.73,.8,1.48,1.5,2.23,2.1,.75,.6,1.73,.9,2.92,.9,1.1,0,2.06-.36,2.88-1.08,.82-.72,1.23-1.71,1.23-2.97-1.37-1.4-3.15-3.27-5.35-5.6-1.7-1.8-3.57-3.79-5.63-5.96Z"/><path d="M234.28,12.13c-.67,0-1.34,.05-2.02,.15-.68,.1-1.19,.18-1.53,.25v27.2c0,1.3,.31,2.22,.93,2.75,.62,.53,1.67,.8,3.17,.8,.7,0,1.38-.04,2.02-.12,.65-.08,1.14-.17,1.48-.27V15.73c0-1.4-.32-2.35-.95-2.85-.63-.5-1.67-.75-3.1-.75Z"/><path d="M281.3,33.96c-.15-1.85-.31-3.75-.47-5.7-.17-1.95-.33-3.82-.5-5.6-.17-1.78-.33-3.36-.48-4.72-.15-1.37-.29-2.37-.43-3-.17-.83-.69-1.46-1.57-1.88-.88-.42-2.04-.62-3.48-.62-.8,0-1.56,.08-2.27,.22-.72,.15-1.29,.36-1.73,.62-.73,1.87-1.59,4.2-2.58,7-.98,2.8-1.94,5.68-2.88,8.65h-.25c-.47-1.33-.98-2.81-1.55-4.42-.57-1.62-1.13-3.22-1.7-4.8-.57-1.58-1.1-2.98-1.6-4.18-.4-1.1-1.05-1.89-1.95-2.38-.9-.48-2.1-.72-3.6-.72-1.4,0-2.5,.21-3.3,.62-.8,.42-1.33,.83-1.6,1.22-.13,1.73-.27,3.62-.4,5.68-.13,2.05-.27,4.12-.4,6.22-.13,2.1-.26,4.09-.38,5.97-.12,1.88-.21,3.55-.28,5-.07,1.45-.1,2.54-.1,3.28,0,1.07,.35,1.82,1.05,2.25s1.68,.65,2.95,.65c.6,0,1.2-.07,1.8-.2,.6-.13,1.1-.25,1.5-.35,.1-2.03,.18-3.91,.25-5.62,.07-1.72,.12-3.39,.17-5.02,.05-1.63,.11-3.33,.18-5.08,.07-1.75,.15-3.67,.25-5.78h.25c.43,1.53,1.04,3.36,1.82,5.48,.78,2.12,1.74,4.76,2.88,7.92,.2,.63,.65,1.08,1.35,1.35,.7,.27,1.57,.4,2.6,.4,.8,0,1.5-.1,2.1-.3s1.1-.45,1.5-.75c1.17-3.43,2.14-6.25,2.92-8.45,.78-2.2,1.39-4.02,1.83-5.45h.25c.07,1.4,.13,3.08,.2,5.03,.07,1.95,.14,4.11,.23,6.47,.08,2.37,.21,4.87,.38,7.5,.07,1.1,.48,1.85,1.23,2.25,.75,.4,1.66,.6,2.73,.6,.83,0,1.52-.08,2.07-.23,.55-.15,1.08-.38,1.58-.67-.03-.87-.1-2.03-.2-3.5-.1-1.47-.22-3.12-.38-4.97Z"/><path d="M297.73,12.88c-.63-.5-1.67-.75-3.1-.75-.67,0-1.34,.05-2.02,.15-.68,.1-1.19,.18-1.53,.25v27.2c0,1.3,.31,2.22,.93,2.75,.62,.53,1.67,.8,3.17,.8,.7,0,1.38-.04,2.02-.12,.65-.08,1.14-.17,1.48-.27V15.73c0-1.4-.32-2.35-.95-2.85Z"/></g></g></g></svg>