<?xml version="1.0" encoding="UTF-8"?><svg id="Layer_2" xmlns="http://www.w3.org/2000/svg" viewBox="0 0 59.89 55.51"><g id="Layer_1-2"><g><path d="M54.83,24.49c-.34-.55-.69-1.07-1.04-1.58-.22-.33-.46-.64-.68-.95l.04,.04c.6-1.35,3.55-21.37-2.96-21.98-2.79-.55-14.9,8.47-15.2,10.51h0c-4.56-.64-5.19-.64-9.75,0C24.98,8.54,12.73-.57,10.03,.03c-6.49,.54-3.58,20.7-2.97,21.98l.05-.05c-35.93,42.83,77.57,45.72,47.72,2.54ZM48.87,3.88c4.42,.44,3.57,9.43,1.09,14.44-2.67-2.63-5.5-4.45-8.18-5.67,0-4.54,4.94-8.26,7.1-8.77ZM8.54,7.1c.99-7.07,9.75-.4,9.9,5.54-2.66,1.22-5.56,3.06-8.18,5.68-2.44-4.45-1.99-9.46-1.72-11.22Zm44.59,27.83c.21,13.44-15.73,14.16-23.03,13.96-7.29,.2-23.25-.52-23.03-13.96-.33-6.57,9.91-15.62,13.35-13.46,2.44,1.53,7.37,16.14,9.08,21.37,.19,.58,1,.58,1.19,0,1.71-5.23,6.64-19.84,9.09-21.37,3.43-2.16,13.69,6.89,13.35,13.46Z"/><path d="M17.82,27.43c-2.81,0-4.81,4.73-4.43,8.68,.38,3.94,2.89,5.91,5.7,5.91s4.8-1.76,4.8-5.42-3.28-9.16-6.08-9.16Z"/><path d="M42.39,27.43c-2.81,0-6.08,5.5-6.08,9.16s2,5.42,4.81,5.42,5.32-1.97,5.7-5.91c.38-3.94-1.62-8.68-4.43-8.68Z"/></g></g></svg>