<svg width="627" height="50" viewBox="0 0 627 50" fill="none" xmlns="http://www.w3.org/2000/svg">
<path d="M21.76 17.204C22.2587 16.9773 23.0293 16.728 24.072 16.456C25.16 16.1387 26.248 15.98 27.336 15.98C29.24 15.98 30.8267 16.2747 32.096 16.864C33.3653 17.408 34.136 18.224 34.408 19.312C34.9067 21.1707 35.36 22.916 35.768 24.548C36.2213 26.1347 36.652 27.676 37.06 29.172C37.468 30.6227 37.8533 32.0733 38.216 33.524C38.624 34.9747 39.0093 36.4933 39.372 38.08H39.712C40.12 35.3147 40.4827 32.6853 40.8 30.192C41.1173 27.6533 41.412 25.1827 41.684 22.78C41.956 20.332 42.228 17.9293 42.5 15.572C42.772 13.1693 43.044 10.744 43.316 8.296C44.9933 7.344 46.784 6.868 48.688 6.868C50.3653 6.868 51.816 7.23067 53.04 7.956C54.264 8.68133 54.876 9.90533 54.876 11.628C54.876 12.6253 54.7627 14.0533 54.536 15.912C54.3547 17.7253 54.0827 19.7653 53.72 22.032C53.4027 24.2987 53.0173 26.6787 52.564 29.172C52.1107 31.6653 51.6347 34.0453 51.136 36.312C50.6373 38.5787 50.116 40.6413 49.572 42.5C49.0733 44.3133 48.5973 45.7187 48.144 46.716C47.464 47.3507 46.3533 47.872 44.812 48.28C43.2707 48.688 41.684 48.892 40.052 48.892C37.9213 48.892 36.108 48.62 34.612 48.076C33.1613 47.4867 32.2773 46.6707 31.96 45.628C31.3707 43.8147 30.736 41.6613 30.056 39.168C29.376 36.6747 28.6507 33.932 27.88 30.94C27.2453 33.8867 26.588 36.7653 25.908 39.576C25.228 42.3867 24.616 44.7667 24.072 46.716C23.392 47.3507 22.372 47.872 21.012 48.28C19.652 48.688 18.156 48.892 16.524 48.892C14.484 48.892 12.6253 48.62 10.948 48.076C9.316 47.4867 8.25067 46.6707 7.752 45.628C7.344 44.812 6.89067 43.6107 6.392 42.024C5.93867 40.392 5.46267 38.556 4.964 36.516C4.46533 34.4307 3.944 32.1867 3.4 29.784C2.90133 27.3813 2.42533 24.9787 1.972 22.576C1.564 20.1733 1.17867 17.8387 0.816 15.572C0.453333 13.26 0.181333 11.152 0 9.248C0.634667 8.65867 1.51867 8.11467 2.652 7.616C3.78533 7.11733 5.00933 6.868 6.324 6.868C8.04667 6.868 9.452 7.25333 10.54 8.024C11.6733 8.74933 12.376 9.996 12.648 11.764C13.3733 16.388 13.9627 20.2413 14.416 23.324C14.9147 26.4067 15.3 28.9453 15.572 30.94C15.8893 32.8893 16.116 34.408 16.252 35.496C16.388 36.584 16.524 37.4453 16.66 38.08H17C17.408 36.2667 17.7933 34.5893 18.156 33.048C18.5187 31.5067 18.8813 29.9653 19.244 28.424C19.652 26.8373 20.06 25.16 20.468 23.392C20.876 21.5787 21.3067 19.516 21.76 17.204Z" fill="white"/>
<path d="M77.3511 49.436C74.6764 49.436 72.1831 49.0733 69.8711 48.348C67.6044 47.5773 65.6097 46.444 63.8871 44.948C62.2097 43.452 60.8724 41.5707 59.8751 39.304C58.9231 37.0373 58.4471 34.3853 58.4471 31.348C58.4471 28.356 58.9231 25.7947 59.8751 23.664C60.8724 21.488 62.1644 19.72 63.7511 18.36C65.3377 16.9547 67.1511 15.9347 69.1911 15.3C71.2311 14.62 73.3164 14.28 75.4471 14.28C77.8497 14.28 80.0257 14.6427 81.9751 15.368C83.9697 16.0933 85.6697 17.0907 87.0751 18.36C88.5257 19.6293 89.6364 21.148 90.4071 22.916C91.2231 24.684 91.6311 26.6107 91.6311 28.696C91.6311 30.2373 91.2004 31.416 90.3391 32.232C89.4777 33.048 88.2764 33.5693 86.7351 33.796L69.9391 36.312C70.4377 37.808 71.4577 38.9413 72.9991 39.712C74.5404 40.4373 76.3084 40.8 78.3031 40.8C80.1617 40.8 81.9071 40.5733 83.5391 40.12C85.2164 39.6213 86.5764 39.0547 87.6191 38.42C88.3444 38.8733 88.9564 39.508 89.4551 40.324C89.9537 41.14 90.2031 42.0013 90.2031 42.908C90.2031 44.948 89.2511 46.4667 87.3471 47.464C85.8964 48.2347 84.2644 48.756 82.4511 49.028C80.6377 49.3 78.9377 49.436 77.3511 49.436ZM75.4471 22.712C74.3591 22.712 73.4071 22.8933 72.5911 23.256C71.8204 23.6187 71.1857 24.0947 70.6871 24.684C70.1884 25.228 69.8031 25.8627 69.5311 26.588C69.3044 27.268 69.1684 27.9707 69.1231 28.696L80.7511 26.792C80.6151 25.8853 80.1164 24.9787 79.2551 24.072C78.3937 23.1653 77.1244 22.712 75.4471 22.712Z" fill="white"/>
<path d="M108.959 48.28C108.461 48.3707 107.713 48.484 106.715 48.62C105.763 48.8013 104.789 48.892 103.791 48.892C102.794 48.892 101.887 48.824 101.071 48.688C100.301 48.552 99.6434 48.28 99.0994 47.872C98.5554 47.464 98.1247 46.92 97.8074 46.24C97.5354 45.5147 97.3994 44.5853 97.3994 43.452V4.012C97.898 3.92133 98.6234 3.808 99.5754 3.672C100.573 3.49067 101.57 3.4 102.567 3.4C103.565 3.4 104.449 3.468 105.219 3.604C106.035 3.74 106.715 4.012 107.259 4.42C107.803 4.828 108.211 5.39467 108.483 6.12C108.801 6.8 108.959 7.70667 108.959 8.84V48.28Z" fill="white"/>
<path d="M134.886 23.392C133.753 23.392 132.665 23.5733 131.622 23.936C130.625 24.2987 129.741 24.8427 128.97 25.568C128.245 26.248 127.655 27.1093 127.202 28.152C126.749 29.1947 126.522 30.4187 126.522 31.824C126.522 34.6347 127.315 36.7427 128.902 38.148C130.534 39.5533 132.506 40.256 134.818 40.256C136.178 40.256 137.357 40.0973 138.354 39.78C139.351 39.4627 140.235 39.1227 141.006 38.76C141.913 39.3947 142.593 40.0973 143.046 40.868C143.499 41.5933 143.726 42.4773 143.726 43.52C143.726 45.3787 142.842 46.8293 141.074 47.872C139.306 48.8693 136.858 49.368 133.73 49.368C130.874 49.368 128.29 48.96 125.978 48.144C123.666 47.2827 121.671 46.104 119.994 44.608C118.362 43.0667 117.093 41.2307 116.186 39.1C115.279 36.9693 114.826 34.612 114.826 32.028C114.826 29.036 115.302 26.4293 116.254 24.208C117.251 21.9413 118.589 20.0827 120.266 18.632C121.943 17.1813 123.87 16.0933 126.046 15.368C128.267 14.6427 130.602 14.28 133.05 14.28C136.314 14.28 138.83 14.8693 140.598 16.048C142.366 17.2267 143.25 18.7453 143.25 20.604C143.25 21.4653 143.046 22.2813 142.638 23.052C142.23 23.7773 141.754 24.412 141.21 24.956C140.439 24.5933 139.51 24.2533 138.422 23.936C137.334 23.5733 136.155 23.392 134.886 23.392Z" fill="white"/>
<path d="M182.731 31.824C182.731 34.6347 182.301 37.1507 181.439 39.372C180.578 41.548 179.354 43.384 177.767 44.88C176.226 46.376 174.367 47.5093 172.191 48.28C170.015 49.0507 167.59 49.436 164.915 49.436C162.241 49.436 159.815 49.028 157.639 48.212C155.463 47.396 153.582 46.24 151.995 44.744C150.454 43.2027 149.253 41.344 148.391 39.168C147.53 36.992 147.099 34.544 147.099 31.824C147.099 29.1493 147.53 26.724 148.391 24.548C149.253 22.372 150.454 20.536 151.995 19.04C153.582 17.4987 155.463 16.32 157.639 15.504C159.815 14.688 162.241 14.28 164.915 14.28C167.59 14.28 170.015 14.7107 172.191 15.572C174.367 16.388 176.226 17.5667 177.767 19.108C179.354 20.604 180.578 22.44 181.439 24.616C182.301 26.792 182.731 29.1947 182.731 31.824ZM158.931 31.824C158.931 34.5893 159.453 36.72 160.495 38.216C161.583 39.6667 163.079 40.392 164.983 40.392C166.887 40.392 168.338 39.644 169.335 38.148C170.378 36.652 170.899 34.544 170.899 31.824C170.899 29.104 170.378 27.0187 169.335 25.568C168.293 24.072 166.819 23.324 164.915 23.324C163.011 23.324 161.538 24.072 160.495 25.568C159.453 27.0187 158.931 29.104 158.931 31.824Z" fill="white"/>
<path d="M204.215 14.28C206.074 14.28 207.887 14.552 209.655 15.096C211.468 15.5947 213.032 16.3653 214.347 17.408C215.707 16.5013 217.226 15.7533 218.903 15.164C220.626 14.5747 222.688 14.28 225.091 14.28C226.814 14.28 228.491 14.5067 230.123 14.96C231.8 15.4133 233.274 16.1387 234.543 17.136C235.858 18.088 236.9 19.38 237.671 21.012C238.442 22.5987 238.827 24.548 238.827 26.86V48.28C238.374 48.416 237.648 48.552 236.651 48.688C235.699 48.824 234.702 48.892 233.659 48.892C232.662 48.892 231.755 48.824 230.939 48.688C230.168 48.552 229.511 48.28 228.967 47.872C228.423 47.464 227.992 46.92 227.675 46.24C227.403 45.5147 227.267 44.5853 227.267 43.452V27.2C227.267 25.84 226.882 24.8653 226.111 24.276C225.34 23.6413 224.298 23.324 222.983 23.324C222.348 23.324 221.668 23.4827 220.943 23.8C220.218 24.072 219.674 24.3667 219.311 24.684C219.356 24.8653 219.379 25.0467 219.379 25.228C219.379 25.364 219.379 25.5 219.379 25.636V48.28C218.88 48.416 218.132 48.552 217.135 48.688C216.183 48.824 215.208 48.892 214.211 48.892C213.214 48.892 212.307 48.824 211.491 48.688C210.72 48.552 210.063 48.28 209.519 47.872C208.975 47.464 208.544 46.92 208.227 46.24C207.955 45.5147 207.819 44.5853 207.819 43.452V27.2C207.819 25.84 207.388 24.8653 206.527 24.276C205.711 23.6413 204.714 23.324 203.535 23.324C202.719 23.324 202.016 23.46 201.427 23.732C200.838 23.9587 200.339 24.1853 199.931 24.412V48.28C199.478 48.416 198.752 48.552 197.755 48.688C196.803 48.824 195.806 48.892 194.763 48.892C193.766 48.892 192.859 48.824 192.043 48.688C191.272 48.552 190.615 48.28 190.071 47.872C189.527 47.464 189.096 46.92 188.779 46.24C188.507 45.5147 188.371 44.5853 188.371 43.452V22.916C188.371 21.692 188.62 20.7173 189.119 19.992C189.663 19.2667 190.388 18.5867 191.295 17.952C192.836 16.864 194.74 15.98 197.007 15.3C199.319 14.62 201.722 14.28 204.215 14.28Z" fill="white"/>
<path d="M263.355 49.436C260.68 49.436 258.187 49.0733 255.875 48.348C253.608 47.5773 251.614 46.444 249.891 44.948C248.214 43.452 246.876 41.5707 245.879 39.304C244.927 37.0373 244.451 34.3853 244.451 31.348C244.451 28.356 244.927 25.7947 245.879 23.664C246.876 21.488 248.168 19.72 249.755 18.36C251.342 16.9547 253.155 15.9347 255.195 15.3C257.235 14.62 259.32 14.28 261.451 14.28C263.854 14.28 266.03 14.6427 267.979 15.368C269.974 16.0933 271.674 17.0907 273.079 18.36C274.53 19.6293 275.64 21.148 276.411 22.916C277.227 24.684 277.635 26.6107 277.635 28.696C277.635 30.2373 277.204 31.416 276.343 32.232C275.482 33.048 274.28 33.5693 272.739 33.796L255.943 36.312C256.442 37.808 257.462 38.9413 259.003 39.712C260.544 40.4373 262.312 40.8 264.307 40.8C266.166 40.8 267.911 40.5733 269.543 40.12C271.22 39.6213 272.58 39.0547 273.623 38.42C274.348 38.8733 274.96 39.508 275.459 40.324C275.958 41.14 276.207 42.0013 276.207 42.908C276.207 44.948 275.255 46.4667 273.351 47.464C271.9 48.2347 270.268 48.756 268.455 49.028C266.642 49.3 264.942 49.436 263.355 49.436ZM261.451 22.712C260.363 22.712 259.411 22.8933 258.595 23.256C257.824 23.6187 257.19 24.0947 256.691 24.684C256.192 25.228 255.807 25.8627 255.535 26.588C255.308 27.268 255.172 27.9707 255.127 28.696L266.755 26.792C266.619 25.8853 266.12 24.9787 265.259 24.072C264.398 23.1653 263.128 22.712 261.451 22.712Z" fill="white"/>
<path d="M308.373 36.992C308.373 38.1707 308.735 39.0093 309.461 39.508C310.231 40.0067 311.297 40.256 312.657 40.256C313.337 40.256 314.039 40.2107 314.765 40.12C315.49 39.984 316.125 39.8253 316.669 39.644C317.077 40.1427 317.417 40.7093 317.689 41.344C318.006 41.9333 318.165 42.6587 318.165 43.52C318.165 45.2427 317.507 46.648 316.193 47.736C314.923 48.824 312.657 49.368 309.393 49.368C305.403 49.368 302.321 48.4613 300.145 46.648C298.014 44.8347 296.949 41.888 296.949 37.808V8.704C297.447 8.568 298.15 8.432 299.057 8.296C300.009 8.11466 301.006 8.024 302.049 8.024C304.043 8.024 305.585 8.38667 306.673 9.112C307.806 9.792 308.373 11.2653 308.373 13.532V17.884H317.281C317.553 18.3827 317.802 19.0173 318.029 19.788C318.301 20.5133 318.437 21.3293 318.437 22.236C318.437 23.8227 318.074 24.9787 317.349 25.704C316.669 26.384 315.739 26.724 314.561 26.724H308.373V36.992Z" fill="white"/>
<path d="M357.845 31.824C357.845 34.6347 357.414 37.1507 356.553 39.372C355.691 41.548 354.467 43.384 352.881 44.88C351.339 46.376 349.481 47.5093 347.305 48.28C345.129 49.0507 342.703 49.436 340.029 49.436C337.354 49.436 334.929 49.028 332.753 48.212C330.577 47.396 328.695 46.24 327.109 44.744C325.567 43.2027 324.366 41.344 323.505 39.168C322.643 36.992 322.213 34.544 322.213 31.824C322.213 29.1493 322.643 26.724 323.505 24.548C324.366 22.372 325.567 20.536 327.109 19.04C328.695 17.4987 330.577 16.32 332.753 15.504C334.929 14.688 337.354 14.28 340.029 14.28C342.703 14.28 345.129 14.7107 347.305 15.572C349.481 16.388 351.339 17.5667 352.881 19.108C354.467 20.604 355.691 22.44 356.553 24.616C357.414 26.792 357.845 29.1947 357.845 31.824ZM334.045 31.824C334.045 34.5893 334.566 36.72 335.609 38.216C336.697 39.6667 338.193 40.392 340.097 40.392C342.001 40.392 343.451 39.644 344.449 38.148C345.491 36.652 346.013 34.544 346.013 31.824C346.013 29.104 345.491 27.0187 344.449 25.568C343.406 24.072 341.933 23.324 340.029 23.324C338.125 23.324 336.651 24.072 335.609 25.568C334.566 27.0187 334.045 29.104 334.045 31.824Z" fill="white"/>
<path d="M389.814 39.508C390.312 39.5987 390.924 39.6893 391.65 39.78C392.375 39.8253 393.055 39.848 393.69 39.848C395.231 39.848 396.636 39.6213 397.906 39.168C399.22 38.7147 400.331 38.012 401.238 37.06C402.19 36.108 402.915 34.884 403.414 33.388C403.958 31.8467 404.23 30.0107 404.23 27.88C404.23 23.8 403.278 20.74 401.374 18.7C399.47 16.6147 396.931 15.572 393.758 15.572C393.123 15.572 392.466 15.5947 391.786 15.64C391.151 15.6853 390.494 15.7533 389.814 15.844V39.508ZM393.622 49.436C392.851 49.436 391.967 49.4133 390.97 49.368C389.972 49.3227 388.93 49.232 387.842 49.096C386.799 48.96 385.734 48.7787 384.646 48.552C383.603 48.3707 382.628 48.0987 381.722 47.736C379.228 46.784 377.982 45.1293 377.982 42.772V11.016C377.982 10.064 378.231 9.33867 378.73 8.84C379.274 8.296 379.999 7.86533 380.906 7.548C382.855 6.91333 384.918 6.50533 387.094 6.324C389.27 6.09733 391.219 5.984 392.942 5.984C396.478 5.984 399.674 6.41467 402.53 7.276C405.431 8.13733 407.902 9.47467 409.942 11.288C412.027 13.056 413.636 15.3 414.77 18.02C415.903 20.74 416.47 23.9587 416.47 27.676C416.47 31.3027 415.926 34.476 414.838 37.196C413.75 39.8707 412.186 42.1373 410.146 43.996C408.151 45.8093 405.748 47.1693 402.938 48.076C400.127 48.9827 397.022 49.436 393.622 49.436Z" fill="white"/>
<path d="M456.591 31.824C456.591 34.6347 456.16 37.1507 455.299 39.372C454.437 41.548 453.213 43.384 451.627 44.88C450.085 46.376 448.227 47.5093 446.051 48.28C443.875 49.0507 441.449 49.436 438.775 49.436C436.1 49.436 433.675 49.028 431.499 48.212C429.323 47.396 427.441 46.24 425.855 44.744C424.313 43.2027 423.112 41.344 422.251 39.168C421.389 36.992 420.959 34.544 420.959 31.824C420.959 29.1493 421.389 26.724 422.251 24.548C423.112 22.372 424.313 20.536 425.855 19.04C427.441 17.4987 429.323 16.32 431.499 15.504C433.675 14.688 436.1 14.28 438.775 14.28C441.449 14.28 443.875 14.7107 446.051 15.572C448.227 16.388 450.085 17.5667 451.627 19.108C453.213 20.604 454.437 22.44 455.299 24.616C456.16 26.792 456.591 29.1947 456.591 31.824ZM432.791 31.824C432.791 34.5893 433.312 36.72 434.355 38.216C435.443 39.6667 436.939 40.392 438.843 40.392C440.747 40.392 442.197 39.644 443.195 38.148C444.237 36.652 444.759 34.544 444.759 31.824C444.759 29.104 444.237 27.0187 443.195 25.568C442.152 24.072 440.679 23.324 438.775 23.324C436.871 23.324 435.397 24.072 434.355 25.568C433.312 27.0187 432.791 29.104 432.791 31.824Z" fill="white"/>
<path d="M494.531 42.364C494.304 44.4947 493.669 46.1267 492.627 47.26C491.629 48.3933 490.156 48.96 488.207 48.96C486.756 48.96 485.464 48.62 484.331 47.94C483.197 47.2147 481.973 46.0133 480.659 44.336L473.927 35.904V48.28C473.428 48.3707 472.68 48.484 471.683 48.62C470.731 48.8013 469.756 48.892 468.759 48.892C467.761 48.892 466.855 48.824 466.039 48.688C465.268 48.552 464.611 48.28 464.067 47.872C463.523 47.464 463.092 46.92 462.775 46.24C462.503 45.5147 462.367 44.5853 462.367 43.452V4.08C462.865 3.944 463.591 3.808 464.543 3.672C465.54 3.49067 466.537 3.4 467.535 3.4C468.532 3.4 469.416 3.468 470.187 3.604C471.003 3.74 471.683 4.012 472.227 4.42C472.771 4.828 473.179 5.39467 473.451 6.12C473.768 6.8 473.927 7.70667 473.927 8.84V26.792L485.623 14.824C487.98 14.824 489.861 15.3453 491.267 16.388C492.717 17.4307 493.443 18.7453 493.443 20.332C493.443 21.012 493.329 21.6467 493.103 22.236C492.876 22.78 492.513 23.3467 492.015 23.936C491.561 24.5253 490.949 25.16 490.179 25.84C489.453 26.4747 488.592 27.2227 487.595 28.084L483.651 31.484L494.531 42.364Z" fill="white"/>
<path d="M532.249 42.364C532.023 44.4947 531.388 46.1267 530.345 47.26C529.348 48.3933 527.875 48.96 525.925 48.96C524.475 48.96 523.183 48.62 522.049 47.94C520.916 47.2147 519.692 46.0133 518.377 44.336L511.645 35.904V48.28C511.147 48.3707 510.399 48.484 509.401 48.62C508.449 48.8013 507.475 48.892 506.477 48.892C505.48 48.892 504.573 48.824 503.757 48.688C502.987 48.552 502.329 48.28 501.785 47.872C501.241 47.464 500.811 46.92 500.493 46.24C500.221 45.5147 500.085 44.5853 500.085 43.452V4.08C500.584 3.944 501.309 3.808 502.261 3.672C503.259 3.49067 504.256 3.4 505.253 3.4C506.251 3.4 507.135 3.468 507.905 3.604C508.721 3.74 509.401 4.012 509.945 4.42C510.489 4.828 510.897 5.39467 511.169 6.12C511.487 6.8 511.645 7.70667 511.645 8.84V26.792L523.341 14.824C525.699 14.824 527.58 15.3453 528.985 16.388C530.436 17.4307 531.161 18.7453 531.161 20.332C531.161 21.012 531.048 21.6467 530.821 22.236C530.595 22.78 530.232 23.3467 529.733 23.936C529.28 24.5253 528.668 25.16 527.897 25.84C527.172 26.4747 526.311 27.2227 525.313 28.084L521.369 31.484L532.249 42.364Z" fill="white"/>
<path d="M537.396 6.12C537.396 4.39733 537.963 2.94667 539.096 1.768C540.275 0.589332 541.816 0 543.72 0C545.624 0 547.143 0.589332 548.276 1.768C549.455 2.94667 550.044 4.39733 550.044 6.12C550.044 7.84267 549.455 9.29333 548.276 10.472C547.143 11.6507 545.624 12.24 543.72 12.24C541.816 12.24 540.275 11.6507 539.096 10.472C537.963 9.29333 537.396 7.84267 537.396 6.12ZM549.5 48.28C549.001 48.3707 548.253 48.484 547.256 48.62C546.304 48.8013 545.329 48.892 544.332 48.892C543.335 48.892 542.428 48.824 541.612 48.688C540.841 48.552 540.184 48.28 539.64 47.872C539.096 47.464 538.665 46.92 538.348 46.24C538.076 45.5147 537.94 44.5853 537.94 43.452V15.776C538.439 15.6853 539.164 15.572 540.116 15.436C541.113 15.2547 542.111 15.164 543.108 15.164C544.105 15.164 544.989 15.232 545.76 15.368C546.576 15.504 547.256 15.776 547.8 16.184C548.344 16.592 548.752 17.1587 549.024 17.884C549.341 18.564 549.5 19.4707 549.5 20.604V48.28Z" fill="white"/>
<path d="M572.703 14.28C574.562 14.28 576.375 14.552 578.143 15.096C579.957 15.5947 581.521 16.3653 582.835 17.408C584.195 16.5013 585.714 15.7533 587.391 15.164C589.114 14.5747 591.177 14.28 593.579 14.28C595.302 14.28 596.979 14.5067 598.611 14.96C600.289 15.4133 601.762 16.1387 603.031 17.136C604.346 18.088 605.389 19.38 606.159 21.012C606.93 22.5987 607.315 24.548 607.315 26.86V48.28C606.862 48.416 606.137 48.552 605.139 48.688C604.187 48.824 603.19 48.892 602.147 48.892C601.15 48.892 600.243 48.824 599.427 48.688C598.657 48.552 597.999 48.28 597.455 47.872C596.911 47.464 596.481 46.92 596.163 46.24C595.891 45.5147 595.755 44.5853 595.755 43.452V27.2C595.755 25.84 595.37 24.8653 594.599 24.276C593.829 23.6413 592.786 23.324 591.471 23.324C590.837 23.324 590.157 23.4827 589.431 23.8C588.706 24.072 588.162 24.3667 587.799 24.684C587.845 24.8653 587.867 25.0467 587.867 25.228C587.867 25.364 587.867 25.5 587.867 25.636V48.28C587.369 48.416 586.621 48.552 585.623 48.688C584.671 48.824 583.697 48.892 582.699 48.892C581.702 48.892 580.795 48.824 579.979 48.688C579.209 48.552 578.551 48.28 578.007 47.872C577.463 47.464 577.033 46.92 576.715 46.24C576.443 45.5147 576.307 44.5853 576.307 43.452V27.2C576.307 25.84 575.877 24.8653 575.015 24.276C574.199 23.6413 573.202 23.324 572.023 23.324C571.207 23.324 570.505 23.46 569.915 23.732C569.326 23.9587 568.827 24.1853 568.419 24.412V48.28C567.966 48.416 567.241 48.552 566.243 48.688C565.291 48.824 564.294 48.892 563.251 48.892C562.254 48.892 561.347 48.824 560.531 48.688C559.761 48.552 559.103 48.28 558.559 47.872C558.015 47.464 557.585 46.92 557.267 46.24C556.995 45.5147 556.859 44.5853 556.859 43.452V22.916C556.859 21.692 557.109 20.7173 557.607 19.992C558.151 19.2667 558.877 18.5867 559.783 17.952C561.325 16.864 563.229 15.98 565.495 15.3C567.807 14.62 570.21 14.28 572.703 14.28Z" fill="white"/>
<path d="M614.095 6.12C614.095 4.39733 614.662 2.94667 615.795 1.768C616.974 0.589332 618.515 0 620.419 0C622.323 0 623.842 0.589332 624.975 1.768C626.154 2.94667 626.743 4.39733 626.743 6.12C626.743 7.84267 626.154 9.29333 624.975 10.472C623.842 11.6507 622.323 12.24 620.419 12.24C618.515 12.24 616.974 11.6507 615.795 10.472C614.662 9.29333 614.095 7.84267 614.095 6.12ZM626.199 48.28C625.701 48.3707 624.953 48.484 623.955 48.62C623.003 48.8013 622.029 48.892 621.031 48.892C620.034 48.892 619.127 48.824 618.311 48.688C617.541 48.552 616.883 48.28 616.339 47.872C615.795 47.464 615.365 46.92 615.047 46.24C614.775 45.5147 614.639 44.5853 614.639 43.452V15.776C615.138 15.6853 615.863 15.572 616.815 15.436C617.813 15.2547 618.81 15.164 619.807 15.164C620.805 15.164 621.689 15.232 622.459 15.368C623.275 15.504 623.955 15.776 624.499 16.184C625.043 16.592 625.451 17.1587 625.723 17.884C626.041 18.564 626.199 19.4707 626.199 20.604V48.28Z" fill="white"/>
</svg>